# xmcd
#
# Track frame offsets:
#	150
#	23183
#	43461
#	62589
#	80724
#	97285
#	114716
#	132602
#	153282
#	172294
#	189998
#	208423
#	225782
#	243500
#
# Disc length: 3473 seconds
#
# Revision: 3
# Processed by: cddbd v1.5.2PL0 Copyright (c) Steve Scherf et al.
# Submitted via: EasyCDDAExtractor 15.3.0.1
#
DISCID=cf0d8f0e
DTITLE=Daniela Romo - Ave Fenix
DYEAR=2001
DGENRE=Latin
TTITLE0=Te Quiero Mi Amor
TTITLE1=Sombras Amantes
TTITLE2=Atarte A Mi Corazon
TTITLE3=El Ayer
TTITLE4=Run Run (Corre Riesgos)
TTITLE5=Ave Fenix
TTITLE6=Piensa En Mi
TTITLE7=Llevame
TTITLE8=Soledad Sin Fin
TTITLE9=Somos Solo Dos
TTITLE10=Las Heridas
TTITLE11=Quiero Amanecer Con Alguien
TTITLE12=De Mi Enamorate
TTITLE13=Yo No Te Pido La Luna
EXTD=
EXTT0=
EXTT1=
EXTT2=
EXTT3=
EXTT4=
EXTT5=
EXTT6=
EXTT7=
EXTT8=
EXTT9=
EXTT10=
EXTT11=
EXTT12=
EXTT13=
PLAYORDER=
